<svg xmlns="http://www.w3.org/2000/svg" viewBox="0 0 800 260" width="800" height="260">
  <defs>
    <linearGradient id="bg" x1="0%" y1="0%" x2="100%" y2="100%">
      <stop offset="0%" stop-color="#1A1B26"/>
      <stop offset="100%" stop-color="#24283B"/>
    </linearGradient>
    <radialGradient id="gopherGlow" cx="100" cy="130" r="120" gradientUnits="userSpaceOnUse">
  <stop offset="0%" stop-color="#00ADD8" stop-opacity="0.18"/>
  <stop offset="100%" stop-color="#00ADD8" stop-opacity="0"/>
</radialGradient>
  </defs>

  <!-- background -->
  <rect x="0" y="0" width="800" height="260" rx="16" fill="url(#bg)"/>

  <!-- dot pattern (dotfiles motif) -->
  <g>
    <circle cx="580" cy="30" r="2.5" fill="#5DC9E2" opacity="0.18"/>
    <circle cx="600" cy="30" r="2.5" fill="#5DC9E2" opacity="0.174"/>
    <circle cx="620" cy="30" r="2.5" fill="#5DC9E2" opacity="0.167"/>
    <circle cx="640" cy="30" r="2.5" fill="#5DC9E2" opacity="0.161"/>
    <circle cx="660" cy="30" r="2.5" fill="#5DC9E2" opacity="0.155"/>
    <circle cx="680" cy="30" r="2.5" fill="#5DC9E2" opacity="0.148"/>
    <circle cx="700" cy="30" r="2.5" fill="#5DC9E2" opacity="0.142"/>
    <circle cx="720" cy="30" r="2.5" fill="#5DC9E2" opacity="0.135"/>
    <circle cx="740" cy="30" r="2.5" fill="#5DC9E2" opacity="0.129"/>
    <circle cx="760" cy="30" r="2.5" fill="#5DC9E2" opacity="0.123"/>
    <circle cx="780" cy="30" r="2.5" fill="#5DC9E2" opacity="0.116"/>
    <circle cx="800" cy="30" r="2.5" fill="#5DC9E2" opacity="0.11"/>
    <circle cx="580" cy="50" r="2.5" fill="#5DC9E2" opacity="0.174"/>
    <circle cx="600" cy="50" r="2.5" fill="#5DC9E2" opacity="0.171"/>
    <circle cx="620" cy="50" r="2.5" fill="#5DC9E2" opacity="0.166"/>
    <circle cx="640" cy="50" r="2.5" fill="#5DC9E2" opacity="0.16"/>
    <circle cx="660" cy="50" r="2.5" fill="#5DC9E2" opacity="0.154"/>
    <circle cx="680" cy="50" r="2.5" fill="#5DC9E2" opacity="0.148"/>
    <circle cx="700" cy="50" r="2.5" fill="#5DC9E2" opacity="0.141"/>
    <circle cx="720" cy="50" r="2.5" fill="#5DC9E2" opacity="0.135"/>
    <circle cx="740" cy="50" r="2.5" fill="#5DC9E2" opacity="0.129"/>
    <circle cx="760" cy="50" r="2.5" fill="#5DC9E2" opacity="0.122"/>
    <circle cx="780" cy="50" r="2.5" fill="#5DC9E2" opacity="0.116"/>
    <circle cx="800" cy="50" r="2.5" fill="#5DC9E2" opacity="0.11"/>
    <circle cx="580" cy="70" r="2.5" fill="#5DC9E2" opacity="0.167"/>
    <circle cx="600" cy="70" r="2.5" fill="#5DC9E2" opacity="0.166"/>
    <circle cx="620" cy="70" r="2.5" fill="#5DC9E2" opacity="0.162"/>
    <circle cx="640" cy="70" r="2.5" fill="#5DC9E2" opacity="0.157"/>
    <circle cx="660" cy="70" r="2.5" fill="#5DC9E2" opacity="0.152"/>
    <circle cx="680" cy="70" r="2.5" fill="#5DC9E2" opacity="0.146"/>
    <circle cx="700" cy="70" r="2.5" fill="#5DC9E2" opacity="0.14"/>
    <circle cx="720" cy="70" r="2.5" fill="#5DC9E2" opacity="0.134"/>
    <circle cx="740" cy="70" r="2.5" fill="#5DC9E2" opacity="0.128"/>
    <circle cx="760" cy="70" r="2.5" fill="#5DC9E2" opacity="0.121"/>
    <circle cx="780" cy="70" r="2.5" fill="#5DC9E2" opacity="0.115"/>
    <circle cx="800" cy="70" r="2.5" fill="#5DC9E2" opacity="0.109"/>
    <circle cx="580" cy="90" r="2.5" fill="#5DC9E2" opacity="0.161"/>
    <circle cx="600" cy="90" r="2.5" fill="#5DC9E2" opacity="0.16"/>
    <circle cx="620" cy="90" r="2.5" fill="#5DC9E2" opacity="0.157"/>
    <circle cx="640" cy="90" r="2.5" fill="#5DC9E2" opacity="0.153"/>
    <circle cx="660" cy="90" r="2.5" fill="#5DC9E2" opacity="0.148"/>
    <circle cx="680" cy="90" r="2.5" fill="#5DC9E2" opacity="0.143"/>
    <circle cx="700" cy="90" r="2.5" fill="#5DC9E2" opacity="0.137"/>
    <circle cx="720" cy="90" r="2.5" fill="#5DC9E2" opacity="0.132"/>
    <circle cx="740" cy="90" r="2.5" fill="#5DC9E2" opacity="0.126"/>
    <circle cx="760" cy="90" r="2.5" fill="#5DC9E2" opacity="0.12"/>
    <circle cx="780" cy="90" r="2.5" fill="#5DC9E2" opacity="0.114"/>
    <circle cx="800" cy="90" r="2.5" fill="#5DC9E2" opacity="0.107"/>
    <circle cx="580" cy="110" r="2.5" fill="#5DC9E2" opacity="0.155"/>
    <circle cx="600" cy="110" r="2.5" fill="#5DC9E2" opacity="0.154"/>
    <circle cx="620" cy="110" r="2.5" fill="#5DC9E2" opacity="0.152"/>
    <circle cx="640" cy="110" r="2.5" fill="#5DC9E2" opacity="0.148"/>
    <circle cx="660" cy="110" r="2.5" fill="#5DC9E2" opacity="0.144"/>
    <circle cx="680" cy="110" r="2.5" fill="#5DC9E2" opacity="0.139"/>
    <circle cx="700" cy="110" r="2.5" fill="#5DC9E2" opacity="0.134"/>
    <circle cx="720" cy="110" r="2.5" fill="#5DC9E2" opacity="0.129"/>
    <circle cx="740" cy="110" r="2.5" fill="#5DC9E2" opacity="0.123"/>
    <circle cx="760" cy="110" r="2.5" fill="#5DC9E2" opacity="0.117"/>
    <circle cx="780" cy="110" r="2.5" fill="#5DC9E2" opacity="0.111"/>
    <circle cx="800" cy="110" r="2.5" fill="#5DC9E2" opacity="0.106"/>
    <circle cx="580" cy="130" r="2.5" fill="#5DC9E2" opacity="0.148"/>
    <circle cx="600" cy="130" r="2.5" fill="#5DC9E2" opacity="0.148"/>
    <circle cx="620" cy="130" r="2.5" fill="#5DC9E2" opacity="0.146"/>
    <circle cx="640" cy="130" r="2.5" fill="#5DC9E2" opacity="0.143"/>
    <circle cx="660" cy="130" r="2.5" fill="#5DC9E2" opacity="0.139"/>
    <circle cx="680" cy="130" r="2.5" fill="#5DC9E2" opacity="0.135"/>
    <circle cx="700" cy="130" r="2.5" fill="#5DC9E2" opacity="0.13"/>
    <circle cx="720" cy="130" r="2.5" fill="#5DC9E2" opacity="0.125"/>
    <circle cx="740" cy="130" r="2.5" fill="#5DC9E2" opacity="0.12"/>
    <circle cx="760" cy="130" r="2.5" fill="#5DC9E2" opacity="0.114"/>
    <circle cx="780" cy="130" r="2.5" fill="#5DC9E2" opacity="0.109"/>
    <circle cx="800" cy="130" r="2.5" fill="#5DC9E2" opacity="0.103"/>
    <circle cx="580" cy="150" r="2.5" fill="#5DC9E2" opacity="0.142"/>
    <circle cx="600" cy="150" r="2.5" fill="#5DC9E2" opacity="0.141"/>
    <circle cx="620" cy="150" r="2.5" fill="#5DC9E2" opacity="0.14"/>
    <circle cx="640" cy="150" r="2.5" fill="#5DC9E2" opacity="0.137"/>
    <circle cx="660" cy="150" r="2.5" fill="#5DC9E2" opacity="0.134"/>
    <circle cx="680" cy="150" r="2.5" fill="#5DC9E2" opacity="0.13"/>
    <circle cx="700" cy="150" r="2.5" fill="#5DC9E2" opacity="0.126"/>
    <circle cx="720" cy="150" r="2.5" fill="#5DC9E2" opacity="0.121"/>
    <circle cx="740" cy="150" r="2.5" fill="#5DC9E2" opacity="0.116"/>
    <circle cx="760" cy="150" r="2.5" fill="#5DC9E2" opacity="0.111"/>
    <circle cx="780" cy="150" r="2.5" fill="#5DC9E2" opacity="0.106"/>
    <circle cx="800" cy="150" r="2.5" fill="#5DC9E2" opacity="0.1"/>
    <circle cx="580" cy="170" r="2.5" fill="#5DC9E2" opacity="0.135"/>
    <circle cx="600" cy="170" r="2.5" fill="#5DC9E2" opacity="0.135"/>
    <circle cx="620" cy="170" r="2.5" fill="#5DC9E2" opacity="0.134"/>
    <circle cx="640" cy="170" r="2.5" fill="#5DC9E2" opacity="0.132"/>
    <circle cx="660" cy="170" r="2.5" fill="#5DC9E2" opacity="0.129"/>
    <circle cx="680" cy="170" r="2.5" fill="#5DC9E2" opacity="0.125"/>
    <circle cx="700" cy="170" r="2.5" fill="#5DC9E2" opacity="0.121"/>
    <circle cx="720" cy="170" r="2.5" fill="#5DC9E2" opacity="0.117"/>
    <circle cx="740" cy="170" r="2.5" fill="#5DC9E2" opacity="0.112"/>
    <circle cx="760" cy="170" r="2.5" fill="#5DC9E2" opacity="0.107"/>
    <circle cx="780" cy="170" r="2.5" fill="#5DC9E2" opacity="0.102"/>
    <circle cx="800" cy="170" r="2.5" fill="#5DC9E2" opacity="0.097"/>
    <circle cx="580" cy="190" r="2.5" fill="#5DC9E2" opacity="0.129"/>
    <circle cx="600" cy="190" r="2.5" fill="#5DC9E2" opacity="0.129"/>
    <circle cx="620" cy="190" r="2.5" fill="#5DC9E2" opacity="0.128"/>
    <circle cx="640" cy="190" r="2.5" fill="#5DC9E2" opacity="0.126"/>
    <circle cx="660" cy="190" r="2.5" fill="#5DC9E2" opacity="0.123"/>
    <circle cx="680" cy="190" r="2.5" fill="#5DC9E2" opacity="0.12"/>
    <circle cx="700" cy="190" r="2.5" fill="#5DC9E2" opacity="0.116"/>
    <circle cx="720" cy="190" r="2.5" fill="#5DC9E2" opacity="0.112"/>
    <circle cx="740" cy="190" r="2.5" fill="#5DC9E2" opacity="0.108"/>
    <circle cx="760" cy="190" r="2.5" fill="#5DC9E2" opacity="0.103"/>
    <circle cx="780" cy="190" r="2.5" fill="#5DC9E2" opacity="0.099"/>
    <circle cx="800" cy="190" r="2.5" fill="#5DC9E2" opacity="0.093"/>
    <circle cx="580" cy="210" r="2.5" fill="#5DC9E2" opacity="0.123"/>
    <circle cx="600" cy="210" r="2.5" fill="#5DC9E2" opacity="0.122"/>
    <circle cx="620" cy="210" r="2.5" fill="#5DC9E2" opacity="0.121"/>
    <circle cx="640" cy="210" r="2.5" fill="#5DC9E2" opacity="0.12"/>
    <circle cx="660" cy="210" r="2.5" fill="#5DC9E2" opacity="0.117"/>
    <circle cx="680" cy="210" r="2.5" fill="#5DC9E2" opacity="0.114"/>
    <circle cx="700" cy="210" r="2.5" fill="#5DC9E2" opacity="0.111"/>
    <circle cx="720" cy="210" r="2.5" fill="#5DC9E2" opacity="0.107"/>
    <circle cx="740" cy="210" r="2.5" fill="#5DC9E2" opacity="0.103"/>
    <circle cx="760" cy="210" r="2.5" fill="#5DC9E2" opacity="0.099"/>
    <circle cx="780" cy="210" r="2.5" fill="#5DC9E2" opacity="0.094"/>
    <circle cx="800" cy="210" r="2.5" fill="#5DC9E2" opacity="0.09"/>
    <circle cx="580" cy="230" r="2.5" fill="#5DC9E2" opacity="0.116"/>
    <circle cx="600" cy="230" r="2.5" fill="#5DC9E2" opacity="0.116"/>
    <circle cx="620" cy="230" r="2.5" fill="#5DC9E2" opacity="0.115"/>
    <circle cx="640" cy="230" r="2.5" fill="#5DC9E2" opacity="0.114"/>
    <circle cx="660" cy="230" r="2.5" fill="#5DC9E2" opacity="0.111"/>
    <circle cx="680" cy="230" r="2.5" fill="#5DC9E2" opacity="0.109"/>
    <circle cx="700" cy="230" r="2.5" fill="#5DC9E2" opacity="0.106"/>
    <circle cx="720" cy="230" r="2.5" fill="#5DC9E2" opacity="0.102"/>
    <circle cx="740" cy="230" r="2.5" fill="#5DC9E2" opacity="0.099"/>
    <circle cx="760" cy="230" r="2.5" fill="#5DC9E2" opacity="0.094"/>
    <circle cx="780" cy="230" r="2.5" fill="#5DC9E2" opacity="0.09"/>
    <circle cx="800" cy="230" r="2.5" fill="#5DC9E2" opacity="0.085"/>
    <circle cx="580" cy="250" r="2.5" fill="#5DC9E2" opacity="0.11"/>
    <circle cx="600" cy="250" r="2.5" fill="#5DC9E2" opacity="0.11"/>
    <circle cx="620" cy="250" r="2.5" fill="#5DC9E2" opacity="0.109"/>
    <circle cx="640" cy="250" r="2.5" fill="#5DC9E2" opacity="0.107"/>
    <circle cx="660" cy="250" r="2.5" fill="#5DC9E2" opacity="0.106"/>
    <circle cx="680" cy="250" r="2.5" fill="#5DC9E2" opacity="0.103"/>
    <circle cx="700" cy="250" r="2.5" fill="#5DC9E2" opacity="0.1"/>
    <circle cx="720" cy="250" r="2.5" fill="#5DC9E2" opacity="0.097"/>
    <circle cx="740" cy="250" r="2.5" fill="#5DC9E2" opacity="0.093"/>
    <circle cx="760" cy="250" r="2.5" fill="#5DC9E2" opacity="0.09"/>
    <circle cx="780" cy="250" r="2.5" fill="#5DC9E2" opacity="0.085"/>
    <circle cx="800" cy="250" r="2.5" fill="#5DC9E2" opacity="0.081"/>
  </g>

  <!-- gopher glow -->
  <circle cx="100" cy="130" r="120" fill="url(#gopherGlow)"/>

  <!-- gopher -->
  <g transform="translate(20,20) scale(0.394)">
<!-- left hand -->
<path fill-rule="evenodd" clip-rule="evenodd" fill="#F6D2A2" stroke="#000" stroke-width="3" stroke-linecap="round" d="
  M10.634,300.493c0.764,15.751,16.499,8.463,23.626,3.539c6.765-4.675,8.743-0.789,9.337-10.015
  c0.389-6.064,1.088-12.128,0.744-18.216c-10.23-0.927-21.357,1.509-29.744,7.602C10.277,286.542,2.177,296.561,10.634,300.493"/>
<path fill-rule="evenodd" clip-rule="evenodd" fill="#C6B198" stroke="#000" stroke-width="3" stroke-linecap="round" d="
  M10.634,300.493c2.29-0.852,4.717-1.457,6.271-3.528"/>

<!-- left ear -->
<path fill-rule="evenodd" clip-rule="evenodd" fill="#6AD7E5" stroke="#000" stroke-width="3" stroke-linecap="round" d="
  M46.997,112.853C-13.3,95.897,31.536,19.189,79.956,50.74L46.997,112.853z"/>
<!-- right ear -->
<path fill-rule="evenodd" clip-rule="evenodd" fill="#6AD7E5" stroke="#000" stroke-width="3" stroke-linecap="round" d="
  M314.895,44.984c47.727-33.523,90.856,42.111,35.388,61.141L314.895,44.984z"/>

<!-- right foot -->
<path fill-rule="evenodd" clip-rule="evenodd" fill="#F6D2A2" stroke="#000" stroke-width="3" stroke-linecap="round" d="
  M325.161,494.343c12.123,7.501,34.282,30.182,16.096,41.18c-17.474,15.999-27.254-17.561-42.591-22.211
  C305.271,504.342,313.643,496.163,325.161,494.343z"/>
<path fill-rule="evenodd" clip-rule="evenodd" fill="none" stroke="#000" stroke-width="3" stroke-linecap="round" d="
  M341.257,535.522c-2.696-5.361-3.601-11.618-8.102-15.939"/>

<!-- left foot -->
<path fill-rule="evenodd" clip-rule="evenodd" fill="#F6D2A2" stroke="#000" stroke-width="3" stroke-linecap="round" d="
  M108.579,519.975c-14.229,2.202-22.238,15.039-34.1,21.558c-11.178,6.665-15.454-2.134-16.461-3.92
  c-1.752-0.799-1.605,0.744-4.309-1.979c-10.362-16.354,10.797-28.308,21.815-36.432C90.87,496.1,100.487,509.404,108.579,519.975z"/>
<path fill-rule="evenodd" clip-rule="evenodd" fill="none" stroke="#000" stroke-width="3" stroke-linecap="round" d="
  M58.019,537.612c0.542-6.233,5.484-10.407,7.838-15.677"/>

<!-- ear inner darks -->
<path fill-rule="evenodd" clip-rule="evenodd" d="M49.513,91.667c-7.955-4.208-13.791-9.923-8.925-19.124
  c4.505-8.518,12.874-7.593,20.83-3.385L49.513,91.667z"/>
<path fill-rule="evenodd" clip-rule="evenodd" d="M337.716,83.667c7.955-4.208,13.791-9.923,8.925-19.124
  c-4.505-8.518-12.874-7.593-20.83-3.385L337.716,83.667z"/>

<!-- right hand -->
<path fill-rule="evenodd" clip-rule="evenodd" fill="#F6D2A2" stroke="#000" stroke-width="3" stroke-linecap="round" d="
  M392.475,298.493c-0.764,15.751-16.499,8.463-23.626,3.539c-6.765-4.675-8.743-0.789-9.337-10.015
  c-0.389-6.064-1.088-12.128-0.744-18.216c10.23-0.927,21.357,1.509,29.744,7.602C392.831,284.542,400.932,294.561,392.475,298.493"/>
<path fill-rule="evenodd" clip-rule="evenodd" fill="#C6B198" stroke="#000" stroke-width="3" stroke-linecap="round" d="
  M392.475,298.493c-2.29-0.852-4.717-1.457-6.271-3.528"/>

<!-- body -->
<path fill-rule="evenodd" clip-rule="evenodd" fill="#6AD7E5" stroke="#000" stroke-width="3" stroke-linecap="round" d="
  M195.512,13.124c60.365,0,116.953,8.633,146.452,66.629c26.478,65.006,17.062,135.104,21.1,203.806
  c3.468,58.992,11.157,127.145-16.21,181.812c-28.79,57.514-100.73,71.982-160,69.863c-46.555-1.666-102.794-16.854-129.069-59.389
  c-30.826-49.9-16.232-124.098-13.993-179.622c2.652-65.771-17.815-131.742,3.792-196.101
  C69.999,33.359,130.451,18.271,195.512,13.124"/>

<!-- right eye white -->
<path fill-rule="evenodd" clip-rule="evenodd" fill="#FFF" stroke="#000" stroke-width="2.908" stroke-linecap="round" d="
  M206.169,94.16c10.838,63.003,113.822,46.345,99.03-17.197C291.935,19.983,202.567,35.755,206.169,94.16"/>
<!-- left eye white -->
<path fill-rule="evenodd" clip-rule="evenodd" fill="#FFF" stroke="#000" stroke-width="2.821" stroke-linecap="round" d="
  M83.103,104.35c14.047,54.85,101.864,40.807,98.554-14.213C177.691,24.242,69.673,36.957,83.103,104.35"/>

<!-- nose bridge -->
<path fill-rule="evenodd" clip-rule="evenodd" fill="#FFF" stroke="#000" stroke-width="3" stroke-linecap="round" d="
  M218.594,169.762c0.046,8.191,1.861,17.387,0.312,26.101c-2.091,3.952-6.193,4.37-9.729,5.967c-4.89-0.767-9.002-3.978-10.963-8.552
  c-1.255-9.946,0.468-19.576,0.785-29.526L218.594,169.762z"/>

<!-- left pupil -->
<ellipse fill-rule="evenodd" clip-rule="evenodd" cx="107.324" cy="95.404" rx="14.829" ry="16.062"/>
<ellipse fill-rule="evenodd" clip-rule="evenodd" fill="#FFF" cx="114.069" cy="99.029" rx="3.496" ry="4.082"/>

<!-- right pupil -->
<ellipse fill-rule="evenodd" clip-rule="evenodd" cx="231.571" cy="91.404" rx="14.582" ry="16.062"/>
<ellipse fill-rule="evenodd" clip-rule="evenodd" fill="#FFF" cx="238.204" cy="95.029" rx="3.438" ry="4.082"/>

<!-- nose left -->
<path fill-rule="evenodd" clip-rule="evenodd" fill="#FFF" stroke="#000" stroke-width="3" stroke-linecap="round" d="
  M176.217,168.87c-6.47,15.68,3.608,47.035,21.163,23.908c-1.255-9.946,0.468-19.576,0.785-29.526L176.217,168.87z"/>

<!-- mouth -->
<path fill-rule="evenodd" clip-rule="evenodd" fill="#F6D2A2" stroke="#231F20" stroke-width="3" stroke-linecap="round" d="
  M178.431,138.673c-12.059,1.028-21.916,15.366-15.646,26.709c8.303,15.024,26.836-1.329,38.379,0.203
  c13.285,0.272,24.17,14.047,34.84,2.49c11.867-12.854-5.109-25.373-18.377-30.97L178.431,138.673z"/>
<path fill-rule="evenodd" clip-rule="evenodd" d="M176.913,138.045c-0.893-20.891,38.938-23.503,43.642-6.016
  C225.247,149.475,178.874,153.527,176.913,138.045C175.348,125.682,176.913,138.045,176.913,138.045z"/>
</g>

  <!-- gopher overlays (symlink arrow + dotfile dots) -->
  <g opacity="0.9">  <text x="170" y="138" font-family="monospace, 'SF Mono', Consolas, monospace" font-size="18" font-weight="bold" fill="#FFFFFF" opacity="0.95">-&gt;</text></g>
  <circle cx="83" cy="162" r="4" fill="#00ADD8" opacity="0.9"/>
  <circle cx="97" cy="162" r="4" fill="#9ECE6A" opacity="0.9"/>
  <circle cx="111" cy="162" r="4" fill="#7AA2F7" opacity="0.9"/>

  <!-- title -->
  <text x="210" y="100" font-family="monospace, 'SF Mono', Consolas, monospace" font-size="52" font-weight="bold" fill="#FFFFFF" text-anchor="start">dfinstall</text>

  <!-- subtitle -->
  <text x="210" y="135" font-family="monospace, 'SF Mono', Consolas, monospace" font-size="22" font-weight="normal" fill="#5DC9E2" text-anchor="start">dotfiles manager</text>

  <!-- symlink arrows -->
  <g opacity="0.9">
    <line x1="210" y1="168" x2="257" y2="168" stroke="#00ADD8" stroke-width="2.5" stroke-linecap="round"/><polygon points="265,168 257,164 257,172" fill="#00ADD8"/>
    <line x1="275" y1="168" x2="322" y2="168" stroke="#007D9C" stroke-width="2.5" stroke-linecap="round"/><polygon points="330,168 322,164 322,172" fill="#007D9C"/>
    <line x1="340" y1="168" x2="387" y2="168" stroke="#9ECE6A" stroke-width="2.5" stroke-linecap="round"/><polygon points="395,168 387,164 387,172" fill="#9ECE6A"/>
  </g>

  <!-- tag line -->
  <text x="210" y="205" font-family="monospace, 'SF Mono', Consolas, monospace" font-size="15" font-weight="normal" fill="#7AA2F7" text-anchor="start">Symlink configs. Install tools. One command.</text>

  <!-- language badges -->
  <g>
    <rect x="210" y="220" width="52" height="22" rx="6" fill="#007D9C" opacity="0.85"/>
    <text x="236" y="236" font-family="monospace, 'SF Mono', Consolas, monospace" font-size="13" font-weight="bold" fill="#FFFFFF" text-anchor="middle">Go</text>
    <rect x="268" y="220" width="56" height="22" rx="6" fill="#3B4261" opacity="0.7"/>
    <text x="296" y="236" font-family="monospace, 'SF Mono', Consolas, monospace" font-size="13" font-weight="normal" fill="#5DC9E2" text-anchor="middle">CLI</text>
    <rect x="330" y="220" width="66" height="22" rx="6" fill="#3B4261" opacity="0.7"/>
    <text x="363" y="236" font-family="monospace, 'SF Mono', Consolas, monospace" font-size="13" font-weight="normal" fill="#5DC9E2" text-anchor="middle">WSL2</text>
  </g>

</svg>